<svg data-name="Calque 2" version="1.1" viewBox="0 0 548.59 569.95" xmlns="http://www.w3.org/2000/svg">
 <defs>
  <style>.cls-1 {
        fill: #3f433d;
      }

      .cls-2 {
        fill: #484c46;
      }

      .cls-3 {
        fill: #464a44;
      }

      .cls-4 {
        fill: #41453f;
      }

      .cls-5 {
        fill: #383839;
      }

      .cls-6 {
        fill: #5a5951;
      }

      .cls-7 {
        fill: #353a22;
      }

      .cls-8 {
        fill: #60645e;
      }

      .cls-9 {
        fill: #343a22;
      }

      .cls-10 {
        fill: #2c2c26;
      }

      .cls-11 {
        fill: #52564b;
      }

      .cls-12 {
        fill: #343833;
      }

      .cls-13 {
        fill: #494c47;
      }

      .cls-14 {
        fill: #353933;
      }

      .cls-15 {
        fill: #242621;
      }

      .cls-16 {
        fill: #343832;
      }

      .cls-17 {
        fill: #242622;
      }

      .cls-18 {
        fill: #443d2c;
      }

      .cls-19 {
        fill: #3e3930;
      }

      .cls-20 {
        fill: #62625b;
      }

      .cls-21 {
        fill: #333732;
      }</style>
 </defs>
 <g data-name="Calque 1">
  <path class="cls-13" d="M1,569.95L0,0h548.59l-1,569.95-1.33-.17c-.32-10.41-.56-21.05.29-31.71l-.95-1.06c-2.34-8.64-1.37-19.61,2-27.95-2.52-1.11-2.52-1.88,0-2.99l-1.31-1.78c-.83-14.64-1.31-29.15-1.43-43.55-4.78.82-7.16-2.17-7.16-8.96-7.04,1.03-6.99-4.34-6.57-9.55-11.73-3.93-5.89-13.53,4.63-10.37l4.85-.65c-.23-2.08,1.11-2.74,4-2l1.31-.43c.1-126.46.33-252.41.69-377.88-1.42,1.26-1.93.72-1-1,.45-14.44.58-28.89.38-43.36l-1.38-.56c-.78,4.1-4.05,7.77-8.46,7.8-2.09,3.91-4.72,5.88-7.89,5.91-.77,4.31-4.12,7.01-8.47,6.17l-6.85,7.22c-1.01,3.38-2.8,4.73-6.05,6-2.03,3.4-5.03,7.76-9.48,6.35-.44,4.04-4.22,8.88-7.76,5.46-.35,1.91-2.34,3.78-4,4.99,1.07,2.57-.87,5.04-5.82,7.41-1.21,3.25-3.9,5.35-8.06,6.32-2.3,5.76-7.65,9.68-12.81,13.14l-4.98,5.69c-2.6,3.48-4.7,4.27-6.29,2.38-19.59,1.88-39.73,3.27-58.67,1.37l-.29-2.37.14-1.33c13.91-.39,27.85-.28,41.83.34l1.28-1.86c4.3,1.11,8.4,1.07,12.3-.11l.73-2.6c22.43-19.99,44.32-40.75,65.66-62.28-12.46,7.8-24.15,16.28-35.01,26.15-5.3-.74-4.13-4.97,3.53-12.69-14.16,12.56-27.82,25.65-40.99,39.27-2.46,2.64-5.56,1.48-5.28-1.81,6.58-8.27,12.53-16.87,17.67-26.01l-9.04,10.2c-7.51,1.76-4.24-4.73-1.28-8.46-8.61,4.12-9.32-1.21-2.13-15.99-10.52,13.39-21.96,25.64-34.33,36.75-1.34.8-23.16,3.69-24.4,3.21-2.03-.78-2.93-2.18-3.69-4.04-4.96.24-6.13-3.11-3.51-10.05l8.29-20.11c9.49-48.43-16.09-9.24-20.84,8.87-2.48,15.12-7.65,19.45-15.52,12.99-3.73-.19-7.57,1.23-11.52,4.26-6.62.4-13.11,1.24-19.48,2.53-4.13-9.13-7.03-16.48-6.35-27.02.4-1.73,4.12-29.99,2.94-28.76-9.45,9.89-16.54,27.2-19.21,40.53l-4.13,6.78c-10.1,2.2-20.04,8.06-28.79,13.95-3.04,1.67-6.54,1.42-10.51-.75-9.54,2.03-13.67-.74-12.37-8.31-2.58,2.51-4.89,4.62-6.54,0l5.44-21.02c-3.55-1.64-16.97,24.13-17.63,28.43-2.68,2.78-5.5,1.18-5.19-2.58-3.37,2.82-6.69,3.28-7.74-1.7l-1.55-14.09c-5.38-8.97-10.13-18.17-14.48-27.64-3.11.5-11.73,27.88-11.87,32-5.79,7.58-8.69,11.37-8.69,11.37-2.98.88-8.11-4.55-10.54-7.13-2.93-3.12-5.35-6.52-6.85-10.54-2.66-8.85-6.38-17.3-11.16-25.35l5.73,29.11c-1.23,5.23-5.22,1.71-7.47-1.1-5.49-9.92-10.53-10.24-15.11-.96-3.95,12.7-10.41,10.94-19.37-5.28-13.46-9.52-19.75-20.47-25.69-35.2-8.78-11.78-8.77-7.97,0,11.43l9.05,26.87c.71,3.45-.76,3.36-3.86,2.77-9.13-12.7-20.73-16.88-35.3-20.2-5.32-1.86-9.54-5.57-12.67-11.13l12.7,21.12-.95,2.22c-3.52,2.66-9.37-2.71-10.41-6.23l-5.17-3.35c-.62-1.61-26.32-26.41-26.66-22.97.51,118.33.44,236.72.1,355.07-.04,14.95-.92,29.89-1.83,44.81,1.91.56,1.91,1.43,0,2,2.17,3.68,3.27,11.28,0,13.97,150.32-.2,301.92-.14,452.84.78l23.8,1.21c4.28,6.49-8.61,7.23-4,1-.21.78-.49,1.83-1.17,2-1.87.48-18.86.31-21.36,0l-1.46-2c7.94,5.19-4.4,10.15-10.24,9.92-6.57,11.28-16.31-2.56-6.25-7.92l-94.15.03c3.94,1.3,13.83,16.37,13.61,19.27-.31,4.19-5.26,5.66-8.98,3.94-3.11-1.43-9.27-7.91-9.23-11.36-5.45-2.78-10.24-7.65-2.35-11.19-12.99-.92-26.31-1.18-39.94-.78-1.95,3.75-5.11,4.05-6.32-.11l-23.11.03c-2.16,5.86-8.06,7.46-7.87-.01h-1.63c-1.79,4.22-6.69,5.02-9.11,1.05-71.78-.89-143.66-1.2-215.63-.95-1.04,2.41-3.07,5.99-6.17,5.39-3.75-.73-4.42-7.17-.29-7.33l-1.12,2H2.4l-1.4-2c3.32.96,3.06,13.42,0,14.97,2.3-6.33,9.36.91,2.28,3.92-.69,7.74-.75,15.41-.18,22.99,11.1-4.99,9.23,7.75-.43,7.93,1.25,3.06,1.82,5.93,1.72,8.61-2.22,3.04-3.09,9.09,1.1,10.63,7.93,7.6-.4,19.83-4.49,6.8l2,3.78c.32,1.25.64,21.78,0,22.71-.5.73-1.11,1.25-2,1.46,4.25-5.95,10.81,2.03,1.83,4.93l-.04,6.1c9.35-1.28,11.41,10.81,3.73,14.62-1.63,3.06-3.47,5.82-5.52,8.29.87.33.87.66,0,1Z"/>
  <path class="cls-5" d="M544.59,568.96c.87.28.86.62,0,1H1c-.03-.33.04-.67,0-1l.96-2h541.38l1.25,2Z"/>
  <path class="cls-18" d="M547.59,569.95h-3v-1c-4.19-.53-2.93-3.93-1.06-6.78l-3.02-7.6c1.88-4.7,2.84-9.92,2.89-15.65l2.19-1.91,2-1.49v34.43Z"/>
  <path class="cls-6" d="M216.84,90.83c22-1.89,44.05-2.28,66.16-1.18l92.54-1.1,13.18,1.28c.18,0,1.58,1.07,3.38,1.07,18.53-.06,37.06-.1,55.58-.07.8.08,1.99.39,2,.95.7,95.28.32,193.56-.74,288.78.16,5.48-1.26,9.72-4.26,12.71-1.32,1.67-3.81,1.86-7.45.55-85.86,2.46-171.75,2.48-257.67.06-27.23-.1-55.27.11-81.79,2.03l-2.82-1.64c-1.7-1.19-1.5-2.24-.36-3.3-1.14-89.83-.85-179.72-.43-269.56.03-7.23.89-14.43,1.78-21.6-.89-.18-.86-.52,0-1-1.86-2.52-3.14-5.34-1-7.99.64-2.39,5.92-2.93,8.35-3.04,25.34-1.17,50.75-1.68,75.75,2.05l33.18-.95c1.7.26,3.24.92,4.63,1.94Z"/>
  <path class="cls-13" d="M540.59,431.21c-1.27.45-4,1.72-4.71,1.81-3.04.35-5.55-2.63-8.33,1.64-3.42,5.25,3.01,3.49,4.99,6.12,2.26,3-1.41,6.15,1.49,8.48,2.54,2.05,3.42.17,5.56-1.08.26,2.39.37,8.21,1.5,9.99,1.62,2.58,3.59-.99,4.01-.99,3.66-.06,1.82,24.55,1.88,27.6.12,7.08.79,14.14.62,21.29-.77,1.09-.77,2.09,0,2.99-.27,9.37-1.18,18.62-2,27.95-.5,5.64-1.51,11.23-1.01,16.98l-1.98-1.01c-1.25,1.91,3.74,7.27,2.85,10.5-.09.32-2.99,1.65-.86,5.48H1c-.67-5.78.92-3.91,2.36-6.08.73-1.09.86-2.51,1.6-3.44,1.88-2.37,4.13-.75,4.13-5.96.01-8.09-7.15-4.58-8.11-5.48-.34-.32-.25-8.69-.06-9.37.25-.9,4.94-1.14,5.06-3.6-.79-.2-5,.24-5,0v-27.95c6,8.23,8.04,1.14,3.47-4.98-1.01-1.35-3.26-1.81-3.49-2.71-.36-1.47-.18-6.03.06-7.74.22-1.54,1.95-2.74,1.95-4.04,0-1.19-1.59-2.48-1.95-4.05-1.37-6.1,1.22-3.65,4.69-5.19s4.23-5.56,1.23-4.81c-1.47.37-4.65,3.53-5.81-.09-1.86-5.79,1.05-19.55-.15-26.3,5.06,2.25,5.06-3.24,0-.99v-14.97h20.98c-2.99,7.9,3.95,6.65,4.56-.06l216.1.31.68,1.76c2.49-5.78,2.25.82,3.04,1.05,5.81,1.68,4.09-2.95,5-3.13.76-.15,5.26-.13,5.45.06.45.45-.73,5.03.5,5.01,3.06-.05,2.75-4.72,4.15-5.04,1.47-.35,24.46-.36,25.77-.02.66.17.97,7.63,3.09,0h42.85c-.38,2.25,5.3,5.33,3.56,7.05-1.2,1.19-5.06-2.69-5.98-1.99-3.19,5.46,3.87,4.81,5.64,8.31.8,1.59.45,4.48,1.64,5.44.46.37,1.89.06,2.35.51,2.12,2.06,5.6,7.91,9.43,3.28,2.55-3.08-.8-4.08-1.95-6.21-1.81-3.34-4.13-7.53-6.58-10.37-1.51-1.75-5.51-1.95-4.54-5.95h108.91c.42,4.52-5.36,1.86-7.29,2.17-.35.06-6.14,2.85-6.4,3.09-1.62,1.45-1.74,6.55,1.19,6.81,5.63.49,3.75-3.14,4.64-3.95.64-.58,15.85-.02,11.87-8.12h23.98c.4,0,1.03,6.92,4-1,1.59-2.9,9.97-4.18,11.49-1,.09-.78.35-1.96.9-2,3.43-.24,28.32-.69,29.63,0,.78.41,1.19,1.19,1.45,2,.17-.76.51-1.88,1.07-1.9,1.62-.04,16.52,1.27,17.22,1.76s1.02,1.31,1.19,2.13Z"/>
  <path class="cls-21" d="M545.59,49.91c.16.33.82.62,1,1-.71,108.25-.74,218.37-.1,330.36l-.9,24.99c-.89,6.95-1.14,14.02,0,20.96,1.53,1.29.92,2.5-1,2-.5.68-1.05.89-1.73.59-26.99-11.75-55.53-21.84-83.94-31.81-5.5-.56-10.26-2.13-14.26-4.71,2.04-8.01,2.77-16.17,3.04-24.39l-.04-278.05c2.57-.45,7.92-7.33,9.96-9.55.71-.77,2.21-.97,2.77-1.75s.08-2.48.27-2.67c.3-.31,2.08,1,3.02.49.62-.33,4.73-5.2,3.99-6.48l1.96,1.01c.4-.53-1.16-2.79-1-2.99.26-.35,7.66-3.23,8.05-3.59.88-.83.76-2.43,1.72-3.37,3.17-3.12,4.85-1.99,7.23-6.02,1.76-1.45,3.04-3.11,4-4.99,1.3-.71,3.73-.97,4.7-2.29s.41-3.8,1.97-4.81c1.37-.89,3.56.36,4.11-.03.26-.19,4.14-4.29,4.31-4.56.84-1.29-.25-3.18-.1-3.27.49-.32,2.85,1.35,4.7-.27,1.04-.91,1.37-3.18,2.24-4.07,1.05-1.07,6.77-7.19,7.25-7.44,1.34-.72,3.16.29,4.56-.46,1.21-.66,4.42-4.32,2.23-5.73,1.13-.77,4.41.1,4.78-.16.42-.29,4.76-6.24,5.39-6.6.4-.23,1.77.84,2.81.32.38-.19,3.73-4.07,6.01-5.55l1.44,1.34c.12,14.25-.02,28.44-.44,42.58Z"/>
  <path class="cls-21" d="M1,412.24c-.72-134.39.56-268.96,0-403.26,4.27,2.91,9.85,4.77,13.63,8.32,5.24,4.93,10.06,11.4,15.43,16.03,2.5,2.15,7.92,3.52,7.1,7.42l7.79,4.16,2.92.75c7.94,9.58,16.9,18.22,26.89,25.9,5.14,7.51,11.17,13.49,19.6,17.08l.55,2.18c1.5,2.48.95,5.29,1,7.99-1.5.89-3.17.48-5.02-1.23-12.14-6.24-2.18,14.05.9,8.46.71-3.27,2.09-5.34,4.12-6.23,1.24,97.1-1.4,194.4.57,291.46l-1.57,3-2.65,2.44c-27.27,7.69-53.93,17.66-79.99,29.91-3.83,1.94-7.59,2.46-11.29,1.58-.52-4.07.03-9.64,0-13.97,1.92-1.18,4.07.26,6.47,4.31,5.26,4.57,12.58-16.16-4.3-5.22l-2.17-1.09Z"/>
  <path class="cls-19" d="M44.97,44.92c-2.07-3.15-14.76-23.78-15.01-25.45-.55-3.72,4.57.49,5.55,1.45,1.8,1.78,3.44,5.76,5.2,7.05,6.15,4.53,19.98,5.51,27.57,10.12,5.81,3.52,10.97,9.95,15.64,14.81-5.71-15.86-9.82-31.17-16.8-46.59-.44-.98-4.22-5.05-.75-4.26,13.44,3.05,14.64,19.72,21.12,28.83,4.36,6.13,12.7,10.8,17.38,16.81,2.65,3.4,4.44,10.54,9.7,11.1,2.74.29,3.71-5.98,4.92-7.8,11.02-16.56,12.09-2.86,22.39,4.9l-8.49-42.92c3.36,7.39,8.33,13.9,11.68,21.27,6.05,13.34,4.61,20.57,17.51,29.95.67.48.98,2.45,1.81,2.67,2.13.57,7.3-8.7,6.5-10.97l1.98,1.98c1.61-7.48,3.63-15.88,6.52-22.93,9.03-22.04,9.68-9.56,15.61,2.33,1.86,3.74,7.9,12.55,8.61,15.35.66,2.59.39,15.72,2.75,16.23l7.48-4.98c.53.55-2.79,6.51,0,6.97,4.91-11.86,10.57-27.21,22.99-32.93l-6.98,26.95c2.54-1.24,3.6-4.71,6.98-3.99-.99,14.4,1.74,7.93,10.53,8.95,2.61.3,4.83,2.23,6.9,2.04,1.86-.17,9.95-6.43,13.18-7.88,5.01-2.24,9.75-4.44,14.41-6.65,1.09-.52,2.46.53,2.8.34.3-.17,3.37-5.05,3.67-5.77,1.84-4.42,1.96-9.65,3.69-14.28,2.06-5.55,10.67-20.98,14.37-25.57.61-.76,4.37-5.3,5.4-4.07,1.52,13.44-4.24,27.24-3.03,40.46.59,6.48,4.74,10.95,5.05,17.43,5.85-3.91,12.8-1.86,18.24-3.24,2.74-.69,6.17-4.55,10.33-4.71,4.77-.18,5.71,5.46,9.67,2.99,3.91-2.44,3.48-8.53,4.94-12.29,3.11-8.02,11.54-29.17,18.26-33.66,10.46-6.99,10.28,8.58,9.42,15.39-1.59,12.52-11.46,24-11.92,36.52,7.06-1.83,3.39,3.81,8.46,4.05l21.79-3.3c12.3-8.26,19.73-21.61,29.69-32.22,1.11-1.19,8.93-9.58,10.01-8.45-1.82,6.32-6.51,14.33-7.94,20.52-.99,4.3,6.52-3.87,7.95-.04.32,2.2-4.93,7.37-4,8.46s3.33-2.2,3.92-2.8c4.71-4.85,8.47-10.65,13.57-15.16.76-.16.64.96.48,1.47-1.23,4.02-10.33,18.43-13.17,22.79-2.14,3.3-5.02,6.41-7.3,9.67-.57.81-2.68,1.95-1,2.99,18.2-17.44,34.92-36.75,55.97-50.9,2.05,2.19-1.32,2.05-2.55,3.4-4.59,5.01-9.26,11.14-13.43,16.57-.61.79-2.7,1.91-1.02,2.98l15.58-13.39,33.89-22.53c-15.21,16.51-31.03,32.6-47.45,47.95-9.58,8.96-20.78,16.44-29.53,26.4-.7.8-.03,2.42-.91,2.98-4.27,2.68-10.55.98-15.04.52-62.13.23-124.25.19-186.37-.09l-27.47,2.09c-12.22-.01-24.56,1.27-36.51,1.04-10.47-.2-22.76-3.03-32.93-3.12-14.27-.13-27.81,1.34-42.97,1-3.02-.07-5.86,1.4-9.49,1.08-2.81-.25-10.9-5.83-13.46-8.02-3.78-3.24-5.49-7.33-8.62-10.35-11.08-10.7-18.44-13.17-27.88-27.55Z"/>
  <path class="cls-8" d="M444.67,393.28c21.25,2.39,40.89,12.07,60.68,19.74,5.37,2.08,38,12.75,39.25,16.19.67,1.85-3.32,1.76-4,2l-19.49-2h-31.98c-3.37,0-7.45.98-11.49,1-158.66.89-317.38-.69-476.05.02-1.09.11-.5-1.29-.6-2.01,19.34-5.52,37.19-15.3,56-22.41,11.81-4.46,25.52-9.81,37.92-11.53,3.4-.47,7-.88,10.43-1.03,109.59-4.69,222.11,4.73,331.82-1.42,2.54-.05,5.09,1.18,7.49,1.45Z"/>
  <path class="cls-9" d="M546.59,50.91c.47.97,1.59,1.66,1.06,3.4l-.06,402.36c-.98,1.32-1.86-1.33-1.96-2.04-.9-6.52.03-16.03-.01-22.99,0-1.29-1.03-2.29-1.03-2.42,0-.51,1-1.54,1-2-1.11-6.95-.91-14,0-20.96-1.05-116.52-1.24-233.98-1.06-350.91l2.06-4.44Z"/>
  <path class="cls-2" d="M430.68,88.84l-41.97,1c-57.03.17-114.61,1.05-171.87,1l27.48-4.08c61.81,6.13,124.82-4.18,186.36,2.08Z"/>
  <path class="cls-17" d="m1 412.24c3.37-1.8 10.74-6.21 13.45-2.95 3.2 3.84-0.21 11.54-5.03 11.96-3.98 0.34-5.56-5.18-8.41-7.01v-2z"/>
  <path class="cls-7" d="M545.59,49.91c-.37-.75-.87-.69-1.06-2.39-1.44-12.85,1.19-28.38.06-41.53.55-.36,2.42-2.65,3-1.49-.74,15.08,1.81,30.69-2,45.41Z"/>
  <path class="cls-20" d="M547.59,509.07c-1.24.95-4.5-1.75-4.67-2.27-.51-1.55-1.82-8.81.68-7.23,1.42.9-.3,9.28,4,6.5-.02,1,.03,2,0,2.99Z"/>
  <path class="cls-1" d="M489.63,50.91c1.9,2.19-1.66,4.71-4,4.99,1.99-3.36.18-2.91,4-4.99Z"/>
  <path class="cls-13" d="M2.99,559.97h-1.99s0-3.99,0-3.99c1.99.53,2.24,2.13,1.98,3.99Z"/>
  <path class="cls-17" d="m95.93 98.82v1c-4.06 18.29-10.45 7.45-14.02-3.45 5.07-3.28 10-1.44 14.02 2.45z"/>
  <path class="cls-15" d="M496.63,385.29c-.72,5.83-7.19.73-9.01-1.48-7.74-9.39-4.85-22.58-5.08-32.85-.68-30.25-3.96-76.51,11.7-103.31,1.4-2.39,7-10.84,10.24-9,3.61,2.05,6.93,22.74,6.77,27.2-.09,2.36-1.22,4.56-1.63,6.65-.92,12.39-3.1,24.22-6.56,35.49l.43,1.94c-4.81,24.4-7.73,47.21-4.79,72.12-.35,1.29-1.05,2.37-2.07,3.25Z"/>
  <path class="cls-15" d="M509.62,91.83l1.08,1.91-4.19,12.69c-2.48,3.92-3.26,8.19-2.34,12.83-5.03,19.65-8.1,39.63-7.43,60.42,2.53,2.08,2.1,5.06-.11,6.97.62.66.38,2.07-.72,4.25,2.78,1.1,3.63,3.86,1.18,5.8.83,1.4,1.67,3.05,2.53,4.93.88.25.86.58,0,1,.44,3.52.11,4.72.11,7.56,0,.61,2.54-.08,1.88,1.91-4.87,6.76-17.02,1.68-19.29-5.66-5.22-16.87-4-49.15-2.67-67.18,1.2-16.22,4.58-51.85,16.48-63.39s14.53,6.99,13.48,15.96Z"/>
  <path class="cls-19" d="M509.62,91.83c.61-.84.87-2.21,1.99-1.99,1.01,8.56,4.16,16.97,4.88,25.58,1.59,18.96-2.4,61.72-9.17,79.42-1.35,3.53-3.66,3.79-4.5,5.04-.29.43,1.03,8.98-3.19,2.75-.04-.33.04-.67,0-1-2.2-2.34-3.68-5.19-1.23-7.64-1.84-2.51-2.43-4.95-1.77-7.33-1.34-2.34.14-3.26,0-4.4-.1-.74-1.89-.52-1.89-1.02.12-11.93.43-27.24,2.17-38.74.55-3.64,6.41-25.53,5.48-26.52-.38-.4-1.77.15-1.76-.69,2.14-.96.85-3.36,1.54-4.46,4.33-6.95,4.32-14.7,7.46-19.01Z"/>
  <path class="cls-19" d="M509.62,272.5c1.66,1.04,1,3.79,1.02,5.48.11,8.78-1.81,22.55-1.05,29.97.57,5.54,2.05,5.23,2.04,12.97-.03,16.1-.11,38.37-5.51,53.38-.82,2.27-5.02,11.3-6.47,12.5-1.99,1.64-1.87-.41-3.01-1.51.53-12.99-2.01-26.46-.98-39.41.94-11.82,4.96-24.15,5.87-35.88.08-1.07-1.1-2.33-.88-3.57l2.01.49c-1.92-4.27,1.44-9.81,2.45-13.95,1.66-6.79,3.2-13.79,4.52-20.47Z"/>
  <path class="cls-15" d="M537.35,37.67c-2.23,2.69-11.38-1.93-10.77-5.16.8-4.18,17.17-18.74,15.99-7.15-.07.67-4.8,11.79-5.23,12.31Z"/>
  <path class="cls-17" d="M454.36,93.03c13.19-3.98,6.9,13.2,1.63,13.66-2.97.25-6.93-12.05-1.63-13.66Z"/>
  <path class="cls-11" d="M545.59,427.22c-2.27-6.41-1.83-14.46,0-20.96.06,6.97-.02,13.99,0,20.96Z"/>
  <path class="cls-15" d="M40.97,191.65c-1.62-3.68-1.77-4.69,1.01-7.58,1.41-14.22,2.82-28.58,4.22-43.08l-1.22-1.96c.6-14.55.21-29.01-1.16-43.37l1.15-2.82c1.14-5.01,3.99-12.52,9.37-13.86,9.6,10.98,11.85,31.14,10.65,45.34-.4,4.77-2.44,9.41-2.91,14.06-2.06,20.48-.29,44.4-6.65,64.23-4.45,13.87-9.36,5.94-12.95-2.98-.87-2.17-1.12-7.25-1.51-7.98Z"/>
  <path class="cls-15" d="M6.99,233.57c2.33-15.73,9.62-8.6,21.6-7.11,12.5,1.55,23.54,3.01,35.93,5.03,4.67.76,20.43,1.48,22.96,4.02,2.31,2.32,1.36,11.86-.54,13.54s-12.82,2.02-15.43,1.55c-1.25-.23.06-3.57-1.57-4.05-1.14-1.6-3.12-2.31-5.94-2.15l-1.09-1.69c-9.03.08-17.94-.19-26.74-.79l-1.17-1.93c-9-.87-17.93-2.36-26.78-4.47l-1.23-1.95Z"/>
  <path class="cls-19" d="M67.95,262.52c2.36,5.19,1.21,14.27-2,18.97-8.73-.24-50.99,4.48-54.72.76-2.08-2.07-1.53-15.42.24-17.75,2.91-3.84,15.18,2.16,19.27,2.75,12.87,1.86,25.15-3.77,37.21-4.73Z"/>
  <path class="cls-19" d="M65.95,302.44c3.75,3.17,1.37,11.95-5.16,8.96-9.04,3.39-19.78,5.06-29.5,5.03-2.94,3.78-5.27,3.99-9.74,3.29l-7.98,2.49-1.58-1.79c-.96-5.45-.88-8.86-1-14.46-.07-3.37-1.86-6.49.08-10.41.97-.83,11.8,1.79,14.37,1.95,9.82.61,20.44-.47,30-.02,4.23.2,9.27.56,10.51,4.98Z"/>
  <path class="cls-19" d="M6.99,233.57c4.63-.43,9.34,2.25,13.56,2.92,5.25.83,10.98-.7,15.75,2.05.46.26,2.59,5.76,2.17.01l4,2c1.57-4.41,1.1-.29,2.1-.02.65.18,4.28-.53,5.85-.39.96.09,1.88,1.06,3.42,1.14,2.91.16,7.93-.54,11.08-.74-.88,5.75,2.93.44,7.01,1.02-.4,3.35-1.59.79-1.99,4.99-.13,1.31.1,2.68,0,4-11.8-.49-53.18,5.82-61.39-.07-2.71-1.95-2.78-11.91-2.51-15.35.07-.82.91-1.35.94-1.55Z"/>
  <path class="cls-15" d="M65.95,302.44c.21-.89-.53-3.06.51-3.01l22.36,3.12c.12,2.27.82,13.39-1.55,13.91-1.59.35-3.93-.31-5.82-.03-13.27,1.92-26.47,2.82-39.73,5.24-9.6,1.75-18.68,6.75-28.8,4.3-1.64-1.15-.66-4.01-.94-5.56,3.3-.27,6.04-2.03,9.26-2.66,1.93-.38,4.29.58,5.23.44.43-.06,3.83-3.76,4.11-3.76,2.37.03,4.2.11,6.75-.09,6.47-.51,12.4-2.22,19.62-3.31,1.22-.18,2.3-1.47,3.58-1.6,1.95-.2,4.23,1.13,4.41.99.32-.24.56-6.08,1.01-7.99Z"/>
  <path class="cls-19" d="M44.97,92.83c-1.18,5.22.38,4.11.73,6.78.54,4.14,1.48,9.98,1.73,13.66.39,5.79-1.46,22.19-.41,25.85.23.81,2.12.53,1.95,1.1-2.49,8.6-2.73,19.41-3.61,28.46-.52,5.3,1.11,17.07-4.38,18.99-.99.84,4.41.65,0,3.98-.05-.09-1.34.33-1.97-.72-5.2-8.69-1.3-72.36,1.44-85.15.83-3.88,1.73-10.24,4.53-12.94Z"/>
  <path class="cls-15" d="M65.95,281.48c.25-6.6,1.1-12.51,2-18.97,3.33-.27,14.87-.77,16.5,1.98,1.89,3.19-.79,13.94,1.43,18.38-1.69,3.09-4.18.19-6.67-.17-4.16-.59-9.07-1.11-13.26-1.23Z"/>
  <path class="cls-17" d="M15.24,43.65c-1.69-1.76-7.87-12.69-7.31-15.04.41-1.72,10.53-5.83,13.3.59,2.6,6.04-1.39,19.24-5.99,14.45Z"/>
  <path class="cls-15" d="M87.93,377.31c-1.74,4.39.68,11.61-5.59,11.94-11.01.58-2.14-12.95,5.59-11.94Z"/>
  <path class="cls-14" d="M108.92,402.27c-6.82,6.15-14.91,12.06-22.96,16.48-2.1,1.16-8.91,5.04-10.54,5.48-.55.15-.41-2.04-1.02-2.08-1.63-.09-8.58,3.79-9.44,3.07-.54-2.51.59-1.76,1.87-2.58,6.3-4.07,16.28-9.43,23.08-12.91,5.93-3.02,12.41-6.41,19.01-7.45Z"/>
  <path class="cls-12" d="M130.9,402.27c-7.2,7.59-25.54,22.2-35.71,23.84-1.69.27-1.26-2.31-3.25-1.91-1.16-1.92,35.02-22.41,38.96-21.93Z"/>
  <path class="cls-16" d="M84.94,402.26c1.4-1.32,1.92-.76,1,1-4.17,2.97-10.71,6.63-15.32,9.15-8.99,4.92-19.3,10.91-29.65,10.8,12.09-10.47,29.36-14.89,43.97-20.95Z"/>
  <path class="cls-16" d="M152.88,403.26c1.17.97-1.82,2.93-2.43,3.53-2.9,2.82-24.48,18.99-26.54,17.42l1.49-2.99c-3.47,1.13-6.6,3.43-10.48,2.99,3.71-3.82,35.87-22.68,37.97-20.95Z"/>
  <path class="cls-12" d="M171.87,406.25c2.57-1.12,3.03.21,1,2-12.01,8.34-18.25,14.04-32.92,17.52-1.68.4-3.33.59-5.05.43,10.22-8.93,24.28-14.95,36.97-19.95Z"/>
  <path class="cls-14" d="M202.85,405.27l-13.75,10.93c-8.91,5.53-18.74,9.51-29.22,11.01-.32-1.73.83-2.59,2.07-3.41,4.58-3.02,14.09-5.73,19.58-8.39,7-3.38,13.42-8.79,21.3-10.15Z"/>
  <path class="cls-3" d="M171.87,406.25c2.46-.97,4.92-3.34,7.99-2.98-1.36,2.59-4.82,3.47-6.99,4.98l-1-2Z"/>
  <path class="cls-4" d="M84.94,402.26c1.08-.45,2.02-2.68,4-1.99-.33,1.48-1.89,2.19-3,2.98l-1-1Z"/>
  <path class="cls-10" d="M496.63,186.66c.09.16,1.99.86,1.98,1.5,0,.45-2.44,1.85-1.97,2.48.06.08,1.69-.34,1.98.69.67,2.36.69,7.51,1.01,10.31l-2.01-2.01-1.98,1.02-1-6.99,2.98.99c.81-2.84-2.23-1.47-2.53-3.89-.2-1.63.98-2.74,1.54-4.1Z"/>
 </g>
 <g fill-opacity="0">
  <rect id="carte_graph" x="184.19" y="235.06" width="293.56" height="87.984" ry=".64401">
   <title>carte_graph</title>
  </rect>
  <rect id="carte_mere" x="290.45" y="221.54" width="149.51" height="133.28">
   <title>carte_mere</title>
  </rect>
  <rect id="ventilo" x="101.75" y="96.602" width="163" height="124">
   <title>ventilo</title>
  </rect>
  <rect id="ram" x="78.569" y="267.26" width="150.7" height="35.421">
   <title>ram</title>
  </rect>
 </g>
</svg>
