<?xml version="1.0" encoding="UTF-8"?>
<svg id="Calque_2" data-name="Calque 2" xmlns="http://www.w3.org/2000/svg" viewBox="0 0 702.22 401.3">
  <defs>
    <style>
      .cls-1 {
        fill: #584d4b;
      }

      .cls-2 {
        fill: #323f26;
      }

      .cls-3 {
        fill: #5c5251;
      }

      .cls-4 {
        fill: #464346;
      }

      .cls-5 {
        fill: #7b6458;
      }

      .cls-6 {
        fill: #b9c1cd;
      }

      .cls-7 {
        fill: #576627;
      }

      .cls-8 {
        fill: #787172;
      }

      .cls-9 {
        fill: #b2a69f;
      }

      .cls-10 {
        fill: #37481d;
      }

      .cls-11 {
        fill: #8d8c93;
      }

      .cls-12 {
        fill: #cbc5c1;
      }

      .cls-13 {
        fill: #3d3b3e;
      }

      .cls-14 {
        fill: #454447;
      }

      .cls-15 {
        fill: #5a6827;
      }

      .cls-16 {
        fill: #f0eff0;
      }

      .cls-17 {
        fill: #535826;
      }

      .cls-18 {
        fill: #828080;
      }

      .cls-19 {
        fill: #788130;
      }

      .cls-20 {
        fill: #535352;
      }

      .cls-21 {
        fill: #798531;
      }

      .cls-22 {
        fill: #a1a0a0;
      }

      .cls-23 {
        fill: #37481e;
      }

      .cls-24 {
        fill: #788331;
      }

      .cls-25 {
        fill: #5c5252;
      }

      .cls-26 {
        fill: #b0b2b8;
      }

      .cls-27 {
        fill: #605959;
      }

      .cls-28 {
        fill: #7aa02b;
      }

      .cls-29 {
        fill: #72645d;
      }

      .cls-30 {
        fill: #525252;
      }

      .cls-31 {
        fill: #798230;
      }

      .cls-32 {
        fill: #8e8e8e;
      }

      .cls-33 {
        fill: #495d24;
      }

      .cls-34 {
        fill: #506124;
      }

      .cls-35 {
        fill: #93b836;
      }

      .cls-36 {
        fill: #778130;
      }

      .cls-37 {
        fill: #788230;
      }

      .cls-38 {
        fill: #8b7264;
      }

      .cls-39 {
        fill: #ebe9eb;
      }

      .cls-40 {
        fill: #878585;
      }

      .cls-41 {
        fill: #535827;
      }

      .cls-42 {
        fill: #524949;
      }

      .cls-43 {
        fill: #394a1e;
      }

      .cls-44 {
        fill: #5d6a27;
      }

      .cls-45 {
        fill: #797c6b;
      }

      .cls-46 {
        fill: #6d584e;
      }

      .cls-47 {
        fill: #a195c3;
      }

      .cls-48 {
        fill: #5c5a5a;
      }

      .cls-49 {
        fill: #aaa3a0;
      }

      .cls-50 {
        fill: #77802f;
      }

      .cls-51 {
        fill: #647029;
      }

      .cls-52 {
        fill: #edecee;
      }

      .cls-53 {
        fill: #9f9e9e;
      }
    </style>
  </defs>
  <g id="Calque_1-2" data-name="Calque 1">
    <g>
      <path class="cls-32" d="M327.09,100.72c.5-1.81,2.33-2.17,5.49-1.09,2.71-.62,6.3-.99,8.61.64,1.9-1.33,3.94-1.47,5.95-.34,9.12-.85,18.38-1.09,27.79-.72,2.62,1.45,4.55,1.17,7.24,0,15.45.07,30.82.07,46.11,0,1.72,1.11,3.18,1.12,4.4.04,4.11.17,8.12.15,12.06-.04,6.61.27,13.29.27,20.04,0l.92,1.51c.67.14.65.39,0,.75q-2.17.55,0,0c.11-2.07,2.82-2.64,3.77-.75,2.8-1.41,5.38-2.44,7.89-.37,9.58-1.39,19.65-2.02,29.02.37,6.27-.05,12.57.03,18.83,0,14.92-2.33,30.26-2.22,45.2,0,6.99-.32,14.02-.57,21.09-.75.24-.04.51,0,.75,0,.34-.29.59-.04.75.75,2.48,2.13,1.64,10.78-.75,12.8l-.57,1.97c-29.52,15.66-59.06,31.29-88.61,46.9l-1.96-.67c.28,1.97-.89,2.21-2.62,1.53-10.94-6.56-22.79-12.04-35.47-14.1l-1.83-1.75,3.05-1.47c12.6-.72,28.4-.42,40.14,3.74,9.06-4.85,18.19-9.6,27.63-13.68,9.05-5.9,18.26-11.55,27.63-16.93-16.71,1.67-33.36,2.82-49.95,3.44l-1.04-1.46c-8.37-.8-17.99-.91-26.36,0-1.47,1.48-3.05,1.48-4.52,0-1.43-.62-3.08-.62-4.52,0l-1.41,1.68c-9.86-.51-19.7-.82-29.5-.92-9.15,5.87-18.58,8.83-29.81,10.63-12.95,2.07-26.12,2.42-39.22,2.52-41.89-1.38-82.84-1.71-125.14,2.37-15.58,2.91-30.3,5.47-45.86,4.99-8.89,1.02-9.05,10.71-1.24,13.99,9.53,4,26.98,2.91,37.29,1.55,32.14-4.24,63.89-9.61,95.55-16.27,3.67-1.05,6.93-.87,9.78.55,6.35.7,13.11.53,19.58,0,2.84-1.63,6.22-2.17,10.14-1.64,10.94-.35,22.64-.31,33.47,1.01,8.1.99,7.96,4.62,2.55,9.7,4.92-.26,9.82-.96,14.69-2.11l1.67,1.32-2.58,2.34c-40.29,12.18-60.98,53.37-65.08,92.78l-1.64,2.78-2.42,2.72c-29.92,21.59-60.3,42.46-91.15,62.61-35.92,20.08-70.01,42.23-102.28,66.46H.92c.02-64.89-.03-129.81.03-194.72.02-23.89-2.12-52.63-.06-76.07.14-1.55.39-2.04.79-3.34-.14-3.01,1.11-4.77,3.77-5.27,6.44-1.13,10.66,0,16.91.04,101.55.78,203.19-.04,304.73-.04Z"/>
      <path class="cls-19" d="M377.56,289l.39,1.55-120.03,78.79c8.65.96,20.15,1.14,30.23.25,2.04.16,2.27,1.18,2.27,2.96.01,4.46-38.39,10.57-44.08,9.89l-.6-.82c-.23,1.97-1.94,2.69-2.57.65l-1.2.1c-.8,1.34-3.12,1.51-4.52.75-.12,1.76-.78,2.11-1.23.37l-2.54.38c-1.03.87-2.53,1.12-4.52.75-1.52.85-3.53,1.1-6.03.75-12.53,1.43-25.64,2.08-38.01,2.29-3.95.07-13.28.63-16.23-.79-2.75-3.29-3.36-5.7-1.83-7.23,41.87-24.18,84.31-48.09,127.32-71.72,22.49-14.64,44.95-29.27,67.38-43.89l2.98-.67,1.8.65c2.97,8.09,6.92,15.88,11.58,23.13l-.57,1.83Z"/>
      <path class="cls-38" d="M614.84,57.04c-.37.65-.37,1.15,0,1.51,0,.25,0,.5,0,.75-.56.94-.58,2.07,0,3.01.02,16.3-1.29,32.58-.76,48.95h6.03c1.82,3.35-3.09,2.87-5.4,1.95l.06,65.46c.42,1.07.18,1.94-.69,2.62.09,12.24.69,24.92.75,36.9l.96.36c0,31.58-.23,63.6-.66,96.04h10.7s1.06,1.5,1.06,1.5c-3.66,1.71-8.72.31-12.81.75v33.51c0,.62,1.83,1.33,2.6,1.17,22.11.24,44.25-.44,66.36-.07,2.9.05,6.82,1.38,9.79,1.16s5.91-2.6,9.39-1.13v28.62h-100.94c-1.09,1.3-9.03,1.09-9.36-.16-1.67-6.49-.86-24.24-.29-31.8.18-2.43.55-4.9,1.37-7.2l1.57.55,3.28,34.87c28.57.95,56.41.04,83.52-2.73l.54-3.91c-16.26-.28-32.49.3-48.67,1.75-3.8.11-7.56-.15-11.34-.5-2.72-.26-15.2-4.75-17.68-6.14-1.94-1.09-2.88-2.6-3.19-4.77-2.48-113.04-3.64-235.83,7.82-350.54,1.46-3.79-9.34-4.53-9.64-4.03-.42,77.94-.97,156.88-3.39,235.5-.08,2.61-.42,5.2-.76,7.81s-.8,5.2-1.29,7.79c-.21.66-.47.65-.75,0-2.18-30.58-2.13-61.3,0-91.88-2.2-11.93-2.13-24.21,0-36.15-2.36-3.46-3.12-11.58-.75-15.06-.04-3.59.87-8.45.75-12.8-.83-2.92-1.08-5.94-.75-9.04-.09-1.42.1-3.53,0-4.52.34-.5.2-.97,0-1.51-.07-.97-1.97-3.43,0-4.52.5,1.34.5.59,0-2.26-.53-2.93-.08-8.51,0-12.05v-1.51c.66-15.04.12-29.65.28-44.68.07-6.13.55-12.54.91-18.66,5.18-2.03,10.39-1.27,15.79-1.38,1.68-.04,4.13-1.59,4.75.46.38,14.02-.1,28.06.08,42.09.06,4.38.77,9.11.78,13.9Z"/>
      <path class="cls-41" d="M592.99,340.96c.43,12.76-.31,25.64,0,38.41.52.53,6.98-.9,8.29.75l1.51,15.82c-11.31,1.42-22.95.72-34.27,1.51-31.54,2.2-59.2,4.24-91.18,3.79-39.88-.56-80.54-.79-120.52-2.26-21.47-.79-42.33-4.12-64.03-3.07-10.88.52-22.96,3.19-33.83,3.07-4.56-.05-10.23-1.83-14.98-1.66-1.81-.6-5.03-8.67-7.31-10.01-3.22-1.89-9.74-.81-13.52-1.92,1.94-.22,3.29-.88,6.03-.75l6.79-.14c.13,0-2.22.51-2.27-.61.65-1.32,2.63-.57,3.77-.75,1.43.59,2.98.51,4.65-.23.68,1.2.63,1.02-.13-.52,1.17-.2,2.28-.53,3.77-.75,3.15,1.11,5.43,2.02,1.34,4.78-1.21,1.72,5.14,9.67,6.95,11.03l2.27-1.47c62.07-8.28,126.91-9.91,190.46-10.31,35.33-.22,70.75.09,105.68.48,10.83.12,20.98.48,30.56,3.16l2.48-3.94c-.79-10.76.51-22.47,3-33.11-.55-3.88,1.13-10.65,3.77-13.56,2.34-1.35,3.28,1.43.75,2.26Z"/>
      <path class="cls-17" d="M364.75,263.39c-24.46,15.11-47.1,33.01-72.08,47.3-40.47,23.14-79.8,42.99-119.77,67.78-1.63,1.01-4.18,1.72-5.49,2.8-1.61,1.33,2.54,3.48,3,4.5l-1.51,1.13c-3.57-1.72-4.09-6.91-8.29-6.78-.05-1.68,1.01-2.02,2.02-2.88,32.09-27.21,73.12-47.96,108.65-70.61,28.89-18.41,56.45-40.3,85.18-58.31.24-2.89,4.38-6.01,6.17-2.94.61,1.05,2.74,13.37,3.01,15.67l-.9,2.33Z"/>
      <path class="cls-35" d="M327.09,100.72c.2-6.39-.26-12.84-.03-19.24.11-3.14,1.88-6.23.03-9.37,19.71-.07,39.44.05,59.16.02,22.91-.04,46.39-.11,69.24-.06,16.96.03,33.93.04,50.88.03v28.62c-12.27.09-24.66-.39-36.91,0-1.33-2.57,3.82-9,6.51-5.65.58,4.14,2.47,4.6,5.68,1.38l1.36,2.01c.76-.54,1.54-1.35,2.01-2.22,3.69-6.87,5.38-8.06,8.09.5,2.75-3.38,8.36-6.01,6.47.22,1.7,2.2,2.71-1.57,3.01-11.3-1.43-.43-1.43-1.08,0-1.51-1.18-1.25-1.68-2.71-1.48-4.36-2.54,1.17-5.43,1.7-8.67,1.59-2.84,2.67-3.85,2.06-6.39-.53-6.18-.54-12.34-1.12-18.46-1.74l-3.4,1.28c-.69,1.47-1.57,1.47-2.26,0l-.75-.75c-.1.53-.37.49-.75,0-2.06-1.08-3.86-.84-5.4.72-1.68.7-3.49.45-5.41-.75-5.57,3.47-8.18,1.73-12.6-2.15-2.44,1.44-4.76,2.24-6.96,2.41-3.74-3.62-6.62-3.49-10.12.36-1.69.85-5.23,2.57-5.46.16-1.45.7-2.35.16-2.26-1.51-1.29.57-2.67.03-4.13-1.63-1.84,1.46-2.62,1.79-4.91,1.63.61,2.04-1.31,3.12-3.01,2.26-.09.5-.2.81-.75.75l-2.55.32c-3.65-4.03-6.57-4.1-11.42-2.14l-4.11-.43c-.25.65-.5.65-.75,0l-3.52-.51c-2.94-3.2-5.85-4.35-8.74-3.46-6.49,5.67-8.18,4.42-13.99-.09l-3.04.95c-4.26,4.62-10.53,4.15-15.79,1.75-1.89.51-1.76,9.94-1.64,12.52.51-.96,1.2-1.09,2.28-.61,1.25.57,2.26,1.83,3.01,3.77,1.31.04,2.09,1.13,2.37,3.26.99-3.17,3.05-3.09,5.13-.7,1.5-1.6,2.34-3.97,3.05-6.32,2.1-2.96,3.49-1.26,4.17,5.11,1.43-1.8,3.05-2.75,4.87-2.85,2.04-1.71,3.22-.46,3.55,3.73,1.69-3.41,3.27-4.4,4.74-2.98.29-2.16,1.55-2.03,2.26,0,.68.24,1.43.55,1.43,1.29,2.4-5.25,4.82-3.93,7.24,3.98,3.1-2.02,5.66-4.9,7.67-8.66,1.7-2.81,3.54-3.68,5.51-2.63,1.91-1.27,3.21.66,1.51,2.26,1.45.71,2.19,2.06,2.2,4.06,1.65-2.57,3.68-4.17,6.08-4.82,1.9-1.31,2.72-.41,1.51,1.51,2.35.44,3.7,2.66,4.06,6.67l4.47-4.81c1.72-1.76,4.63-3.63,5.03-.36l1.61.53c.31,3.53,1.53,4.86,3.66,3.99,3.49-7.37,7.97-6.48,9.6,1.44l4.35-7.29c1.93-2.16,2.77-2.05,4.12.58l1.61.21c.49,5.62,1.38,7.24,2.66,4.84,4.41-6.68,7.46-6.11,9.1,1.8,2.62-1.82,4.86-4.27,6.7-7.32,4.32-2.95,9.39,7.58,6.3,10.27h-138.6Z"/>
      <path class="cls-20" d="M614.84,218.21h13.55c.6,1.25-.04,2.88,0,3.77-.5,1.07-1.31,1.34-2.49,1.5-7.42-1.05-9.3.74-5.63,5.38,1.45,2.56.16,4.54-1.72,6.27,1.6,4.22,2.98,4.28,4.12.2-3.57-2.84-.45-7.62,2.7-4.32,2.62.21,3.02,8.06,1.79,10.42l.47,3.13c.19.1.53-.09.75,0,1.24.85,1.03,2.77,0,3.77-.16,5.02,0,10.02,0,15.06,1.46.69,1.46,1.57,0,2.26,0,1.26,0,2.51,0,3.77,1.42,2.75,1.44,6.29,0,9.04-.09,10.32.28,21.94-.39,32.02-.12,1.76-1.11,3.36-.4,5.21l-.71.42h-12.81c-.08-31.51.14-63.04-.03-94.57,0-1.4.79-2.83.78-3.34Z"/>
      <path class="cls-35" d="M570.4,69.85c.49,9.81.61,19.65.34,29.52.9,1.11.78,1.56-.34,1.36-15.05.06-30.14-.08-45.2,0v-31.63c6.06.89,42.7-1.47,45.2.76Z"/>
      <path class="cls-30" d="M620.11,111.27h8.29c-.25,13.09.02,26.13.75,39.16-.45,1.65-.45,3.41,0,5.27,0,.24,0,.52,0,.75-.59,1.87-.59,3.62,0,5.27,0,.75.03,1.51,0,2.26-.53.76-.54,1.49,0,2.26-.02.25.03.51,0,.75v2.26c-.95,3.96-.04,9.02-.86,11.58-.42,1.33-1.45.91-2.15,1.22-1.21.22-1.96-.04-2.26-.75-3.25-.14-6.54.1-9.79,0,0-.13-.8-1.17-.81-2.55-.18-22.49.24-45.01.06-67.49.2-.29,6.06,2.71,6.77,0Z"/>
      <path class="cls-22" d="M628.4,221.97c.07,1.39.78.57,0,3.01-.65-.18-.64-.44,0-.75-.48-.26-.49-.51,0-.75-.3-.36-.55-.36-.75,0,.5.22.49.47,0,.75-.21.66-.46.65-.75,0l-.75.75c-.25.65-.5.65-.75,0l-.75.75c-.22.66-.47.65-.75,0l-.88.93c4.42,2.76,5.21,4.21,2.38,4.35-6.72.47-.01,4.1-.01,4.89-6.23,3.6-.66,4.06-.66,7.53,0,2.47-2.5,2.85-2.36,5.2.14,2.49,4.32,5.56,3.74,7.49-.34,1.14-3.99,2.02-4.38,4.8-.38,2.69,2.95,2.87,2.91,5.46-8.54,2.32-.25,5.94.42,8.98.44,1.98-2.55,3.16-2.64,4.92-.25,4.62,7.36,8.65-1.17,13.96-.78-1.12-3.84-3.17-4.03-4.24s1.33-2.28,1.35-3.65c.03-1.84-2.48-3.78-2.24-6.01.18-1.75,2.42-2.13,2.3-4.47-.16-3.04-4.56-4-2.31-7.45.47-.72,1.85-.78,2.17-1.76,1.29-3.89-2.21-5.58-2.22-8.19,0-2.34,2.11-2.78,2.36-4.55.31-2.22-1.6-4.97-1.33-6.63.25-1.52,2.84-2.83,2.87-5.37.03-2.87-3.08-5.32-3.09-6.81s2.17-2.13,2.32-3.78c.18-1.93-1.62-2.77-1.98-4.08-.06-.22-.45-4.35-.32-4.53.77-1.14,9.36-.69,11.3-.77Z"/>
      <path class="cls-6" d="M570.4,69.85c1.91,1.7.11,25.89.75,30.12h14.31c.15,0-.12-2.5,0-3.02,3.04-.71.54,2.85.75,3.01h5.27c-6.75,1.01-14.03.73-21.09.76v-30.88Z"/>
      <path class="cls-48" d="M623.88,225.74c.97.94,2.22,1.19,3.77.75.52,5.77.92,12.43,0,18.07-.65-.33-1.58-3.5-1.53-4.09.04-.46,1.53-.38,1.57-.85.2-2.66-1.89-7.02-2.29-8.61-.05-.21,1.08-1.84.76-2.25-.23-.31-4.6-.69-3.77-3.02.47-.09,1.15.13,1.5,0Z"/>
      <path class="cls-52" d="M628.4,269.42c3.36-.33,1.46-.08,1.92,1.14,1.63,4.29-.36,2.11-.35,2.94,0,1.38,2.75,5.8-1.57,4.96.03-3.01,0-6.04,0-9.04Z"/>
      <path class="cls-47" d="M5.45,100.72c.64,2.29-1.64.98-2.33,1.96-.1.15-1.34,3.01-1.44,3.31l-.44-4.56c.89-1.23,3.03-.51,4.21-.72Z"/>
      <path class="cls-20" d="M628.4,224.23c-.02.25.03.51,0,.75-.35.29-.35.54,0,.75-.1.25-.59.48-.75.75-.38.63-.88,2.31-1.12,2.25l-3.4-1.51.75-1.49c.21-.08.5.06.75,0l.75-.75c.21-.09.55.1.75,0l.75-.75c.22-.08.52.06.75,0,.22-.5.47-.49.75,0Z"/>
      <path class="cls-8" d="M592.99,100.72c-.3-.12-.66-.75-.75-.75-.94-2.31-.33-5.75,0-8.28.19,2.82.67,5.93.75,9.04Z"/>
      <path class="cls-16" d="M628.4,263.39c3.56-4.44,4.29,5.05,0,2.26,0-.75,0-1.51,0-2.26Z"/>
      <path class="cls-39" d="M628.4,244.56c.38.16,1.36-.16,1.51,0,.18.2.13,5.14-1.51,3.76.04-1.25-.03-2.51,0-3.77Z"/>
      <path class="cls-4" d="M629.15,155.7c0-.37-2.13-4.11,0-5.27.1,1.78.45,3.38,0,5.27Z"/>
      <path class="cls-13" d="M629.15,161.72c-2.13-1.16,0-4.92,0-5.27v5.27Z"/>
      <path class="cls-42" d="M592.24,78.88c.25,1.38,1.41,3.25.75,5.27h-.74c-.02-1,0-2.01,0-3.01v-2.26Z"/>
      <path class="cls-26" d="M626.14,182.06c-1.53.67-2.5,1.82-2.26-.75.83.03,1.9-.23,2.26.75Z"/>
      <path class="cls-14" d="M629.15,169.26c-2-.88-.02-2.12,0-2.26,1.22,1.25.12,1.76,0,2.26Z"/>
      <path class="cls-1" d="M614.84,62.32c-1.13-.24-1.17-2.7,0-3.01,0,1,0,2.01,0,3.01Z"/>
      <path class="cls-3" d="M592.24,66.83l-.5-.91.5-.6c0,.15,0,1.24,0,1.51Z"/>
      <path class="cls-14" d="M629.15,166.24c-1.13-.11-1.13-2.15,0-2.26-.03.75.06,1.52,0,2.26Z"/>
      <path class="cls-1" d="M614.84,58.55l-.75-.38.75-1.12c0,.5,0,1,0,1.51Z"/>
      <path class="cls-25" d="M592.24,87.17c-.05-.49.03-1.01,0-1.51l.76,1.1-.76.4Z"/>
      <path class="cls-48" d="M628.4,225.74l-.74-.38c.21-.19.72-.28.74-.38-.08.24.08.54,0,.75Z"/>
      <path class="cls-30" d="M58.31,194.25c.26-.2,2.19.69,2.88.25,2.08-1.54-1.48-1.32-1.49-2.27-.05-3.09,20.14-21.01,23.86-23.59,85.28-59.14,198.27,39.67,136.12,125.54-62.44,86.28-208.92,17.91-169.6-83.71.95-2.46,6.89-15.16,8.24-16.23Z"/>
      <path class="cls-30" d="M461.17,147.42c12.53,1.31,27.28,7.92,37.91,14.48.9.56,1.94-.24,2.01-.17,4.23.6,11.25,6.29,12.05,10.54l1.86-.24c6.57,7.32,12.31,15.52,17.05,24.15l-.83,1.7c3.98,2.1,6.78,11.34,5.95,15.44-.13.63-.07,1.26.08,1.88.47.36.92.74,1.29,1.18,2.62,3.11,2.85,19.4,2.65,24.36-2.5,62.23-69.41,104.56-126.62,79.54-4.54-1.99-19.07-9.31-20.71-13.03-.23-.53-.38-1.1-.49-1.68l-1.97.32c-5.21-4.51-10.08-9.48-14.29-14.94l.45-1.95c-4.34-6.14-10.57-18.47-12.81-25.61-1.69-5.39-2.46-11.74-3.37-17.34-.84-1.6-3.92,1.65-4.92,2.28.25-8.66,1.96-17.14,4.3-25.44,9.68-34.2,29.14-62.49,65-72.46l1.32-1.9c10.6-2.44,21.6-3.4,32.46-2.76l1.62,1.66Z"/>
      <path class="cls-9" d="M193.76,348.5c-10,8.03-23.6,14.73-36.55,15.8-19.31,1.58-41.3-.55-61.03-.02-18.73.5-37.67,3.18-56.5,2.33-2.47-.11-18.56-1.55-19.07-2.4-.32-8.62-1.91-17.25-2.39-25.85-.62-10.92.03-22.2-.73-33.16-1.85-26.58-5.93-53.08-6.8-79.8-1-30.36,1.56-60.76.73-91.12,3.26-.38,3.58-2.79.06-1.16-.04-4.77.32-9.56-.71-14.23,2.89-1.22,5.91-2.05,8.98-2.72,2.05-.45,10.23-2.12,11.56-1.93.49.07,1.94,2.9,1.99,3.48.32,3.52-2.9,3.02,2.65,5.6,3.22.12-3.61-8.05-2.64-9.02.28-.28,7.54-.7,7.16,1.51.76-.02-.34-1.43,1.49-1.59,8.19-.7,20.01,1.43,28.6,1.62,31.36.7,63.6-.54,94.92-.76,63.81-.43,127.62-2.6,191.33-3.01,8.93-.06,18.34.41,27.18,0,8.72-.41,19.55-3.1,27.83-3.1,1.48,0,5.59.76,6.48,1.86,5.66,7.05-15.74,9.25-19.29,9.48-18.65,1.22-38.5.54-57.21.79-68.6.92-136.05-.51-204.04,10.64-38.06,6.24-85.48,27.28-100.14,65.57-12.09,31.59-12.44,68.35-4.1,100.9,13.27,51.78,69.3,56.84,114.69,54.1,15.05-.91,30.4-6,45.54-3.79Z"/>
      <path class="cls-9" d="M383.59,153.45c-10.69,8.5-17.16,18.79-22.73,31.12-5.53,12.25-10.22,25.65-13.21,38.76-1.11,4.87-1.31,14.82-4.33,18.26-3.14,3.58-14.89,8.91-19.64,12-21.57,14.01-43.88,29.5-66.14,42.32-1.8,1.04-11.4,6.76-12.56,5.89.27-.85.59-1.19.35-2.17-.53-2.17-2.47-2.7-2.61-4.6,3.74.31,1.36-.44,1.84-2.26,2.54-9.66,9.49-20.23,12.1-31.63,5.09-22.25-3.68-50.82-13.29-71.06-1.43-3.02-4.55-10.08-6.67-12.16-2.84-2.79-8.08-3.21-10.55-6.39,15.85-1.57,31.4-5.46,47.18-7.44,18.38-2.31,35.95-1.65,54.13-3.12,18.83-1.52,37.32-6.33,56.13-7.52Z"/>
      <path class="cls-17" d="M592.99,128.59l-1.06,2.3c-25.76,14.09-51.51,28.18-77.26,42.26l-1.53-.88c-3.56-3.56-8.42-7.21-12.05-10.54l91.15-48.2c.06,4.62.72,10.05.75,15.06Z"/>
      <path class="cls-19" d="M483.02,98.46c-.38-.09-.92-.76-1.13-.71-.84.19-1.83,3.06-5.15,2.26-1.24-.3-1.42-5.41-3.12-4.56-.8.4-3.05,4.32-4.15,5.27-.45.01-2.04.71-3.77.75,0-.25,0-.5,0-.75-.05-2.68-1.94-8.03-4.17-9.78-1.8-.39-5.2,9.09-9.7,8.32-1.07-.18-1.18-5.98-3.08-6.81-1.21.01-5.4,8.36-7.9,6.01-.28-.26-1.01-5.86-1.51-7.53,3.6-3.95,6-3.79,10.82-2.3,4.09-3.79,7.73-4.26,10.92-1.42,5.39-1.68,7.44-.05,10.68,3.8,2.18-.4,4.15-1.59,5.91-3.57,5.91-3.15,7.66,7.92,5.36,11.02Z"/>
      <path class="cls-11" d="M465.69,101.48c-.21,0-1.65,1.25-2.55.81l-136.06-.43,138.61-.38Z"/>
      <path class="cls-40" d="M508.63,121.06c-8.14,2.58-18.17,2.38-26.36,0,.78-1.25,2.86-.75,4.13-.77,6.02-.07,12.08-.06,18.1,0,1.27.01,3.35-.48,4.13.77Z"/>
      <path class="cls-18" d="M363.25,142.14c-4.65,1.33-10.52.82-15.45.77-1.27-.01-3.35.48-4.13-.77,5.12-2.7,14.27-2.38,19.58,0Z"/>
      <path class="cls-40" d="M477.74,121.06c-1.47,1.47-3.05,1.47-4.52,0,.76-1.23,3.81-1.21,4.52,0Z"/>
      <path class="cls-9" d="M244.23,303.3h-1.5c-.24-1.11.33-1.57,1.13-2.25l.37,2.25Z"/>
      <path class="cls-22" d="M508.63,121.06c2.7-.07,5.02-.69,7.87.03l46.36-3.79c.33,1.4-.48,1.46-1.25,2.13-7.16,6.19-21.2,11.11-28.84,17.86-10.17,4.66-20.42,9.26-29.8,15.39-.69-.53.76-1.83.39-2.23-.4-.44-10.21-1.97-11.78-2.17-10.01-1.31-20.31-.66-30.41-.85-10.07-1.05-25.6.29-35.4,3.01-6.65.63-12.89,3.21-19.58,2.26l5.99-7.07c-.27-1.61-4.21-2.45-5.71-2.63-13.17-1.61-29.86-.95-43.23-.84-6.43.05-13.23-.34-19.58,0-17.19.93-36.65,6.76-54,9.67-16.06,2.69-35.1,5.94-51.18,7.55-10.1,1.01-34.25,3.24-41.71-4.04-4.72-4.61-3.52-11.9,2.69-13.88s13.96-.41,20.19-.91c8.46-.69,16.71-3.23,25.08-4.3,23.74-3.02,47.6-3.81,71.4-3.92,31.8-.15,89.73,5.58,117.69-7.35,2.63-1.22,5.64-4.2,8.18-4.62,8.61-1.43,21.96,2.04,31.22.71,1.51,0,3.01,0,4.52,0s3.01,0,4.52,0c8.76,0,17.61.24,26.36,0Z"/>
      <path class="cls-17" d="M592.99,164.74c.07,30.61,0,61.26,0,91.88.8,3.9.53,8.64,0,12.8.66.21.65.47,0,.75-1.73-.62-2.67-2.61-2.82-5.98-11,21.48-24.45,42.33-41.21,59.11l-1.92.34-1.38,1.08c-5.04-1.81-6.37,3.32-6.83,7.36l-1.58.59c-.67,2.7-2,4.12-4.48,5.32l-13.09,6.49-2.01-.52-1.6.69c-6.31-4.74-20.42-10.34-16.18,3.65l-1.05,1.69c-72.94,22.06-152.84,28.58-229.29,33.94-1.61-.05-20.78,2.39-20.74,3.44,1.59,3.01,3.54,5.82,5.86,8.42l-.65,1.64c-3.76-.16-1.27-.18-2-1.49-1.23-2.22-5.98-6.83-5.41-9.24.17-.71,1.9-2,1.35-2.79-.17-.24-2.68-.31-2.24-2.3,9.23-1.4,34.86-4.25,42.12-8.72.62-.38,1.46-1.05,1.57-1.81-6.71-.08-13.26.88-19.99.78-1.6-.02-3.01-.69-4.5-.78-2.92-.18-6.28.35-9.04,0-1.05-.13-2.18-.4-1.11-1.5l122.78-80.59c3.72,5.26,10.78,12.48,15.82,16.57l-1.65,2.33c-26.16,19.26-53.52,37.55-82.95,51.58,1.66,3.21,5.08,4.72,8.53,5.1,38.93,4.33,78.53-1.66,115.7-14.21,38.63-13.04,84.56-32.27,117.52-55.5,10.94-7.71,16.87-11.95,20.1-24.78,6.52-25.93,11.49-55.34,10.02-81.8-3.92,1.86-7.62,4.35-11.1,7.5-11.51,4.56-22.46,11.88-32.3,19.41-1.29-5.56-3.54-12.2-6.03-17.32l-.26-1.57c20.17-10.82,40.34-21.64,60.51-32.46l1.51.9Z"/>
      <path class="cls-17" d="M241.97,382.38c2.74-.34.88.99.96,2.08.12,1.6.52,3.1.54,4.7-1.95-.34-1.75-4.9-2.28-5.27-.68-.48-3.18,1.66-3.74-.76,1.47-.23,3.04-.5,4.52-.75Z"/>
      <path class="cls-17" d="M233.69,383.89c1,.02,2.01-.02,3.01,0-.9,2.22-4.4,1.58-6.42,1.47-1.19-.06-1.05-.72-1.11-.73,1.29-1.14,2.96-.78,4.52-.75Z"/>
      <path class="cls-46" d="M593.75,256.61c1.41-36.52,1.86-73.07,2.98-109.61,1.3-42.22-.63-84.25.82-126.46.19-5.64-.21-11.34-.03-16.97,5.15,1.7,13.07-.98,12.82,6.36-.56,16.26-3.58,33.29-4.57,49.71-5.3,88.08-5.64,181.44-3.7,269.61.13,6.1-1.17,29.19,1.14,32.75.4.62.89,1.11,1.55,1.46,6.01,1.14,11.27,5.32,17.32,6.03,13.72,1.6,28.34-1.07,42.07-1.46,6.26-.17,12.55.2,18.8.02,1.16.16-.2,7.49-.75,7.59-6.24-1.07-12.18,1.01-18.03,1.45-13.35,1-27.27.66-40.63.8-9.02.09-18.05-.17-27.06.01l-3.48-36.95c-.03-.83.23-1.9-.75-2.26-1.18-2.77-1.41-6.02-.71-9.77-.64-3.72-.4-7,.71-9.81-.23-15.33-.41-30.82-.54-46.48l1.3-2.48v-.75c.29-4.35.54-8.62.75-12.8Z"/>
      <path class="cls-19" d="M592.99,164.74l-61.77,33.14c-3.47-7.15-12.61-20.14-18.08-25.61l79.85-43.68c.07,12.04-.03,24.11,0,36.15Z"/>
      <path class="cls-5" d="M592.99,269.42v-12.8h.75c-.16,4.13.75,9.13-.75,12.8Z"/>
      <path class="cls-29" d="M652.5,353.02c1.96,2.04-4.51.46-4.51,2.25-.31-.44.89-1.97.69-2.21-.27-.32-1.74.54-1.44-.79,1.03-.12,4.77.24,5.27.76Z"/>
      <path class="cls-12" d="M697.69,352.26c.51.26-.44,1.28-1.5.74-.51-.26.44-1.28,1.5-.74Z"/>
      <path class="cls-2" d="M592.99,270.17c1.3,13.1.16,31.2.01,44.82-.01,1.27.48,3.35-.77,4.13l-1.81-1.56c.79-2.17-6.77-17.89-8.66-16.98-.83.4-5.68,9.55-6.24,11.17-3.58,10.32-4.33,18.02-2.95,28.87.97,7.59,6.48,28.3,13.91,12.21l1.98-.57c1.48.76.53,2.62.39,3.76-.85,6.64-1.87,13.27-2.22,19.96-.16,2.95.83,6.57.29,9.75-.17,1-2.92,4.86-3.5,4.95-1.63.25-9.61-2.09-12.62-2.3-20.77-1.47-44.47-.36-65.6-.69-73.5-1.16-151.19-.89-224.35,6.84-8.99.95-17.71,3.3-26.83,2.92-1.44-2.02-7.43-8.68-6.75-10.85.38-1.21,7.77-2.34,9.48-2.62,15.39-2.44,31.13-2.5,46.6-3.86,55.67-4.91,109.36-10.12,163.85-22.95,9.26-2.18,18.8-5.52,28.01-7.45,1.35-.28,2.38-.71,3.62.28l1.82.62c5.23,12.14,21.22,24.27,34.59,24.45.85.01,4.93-.1,5.03-.42.82-2.65-17.04-25.53-21.58-27.91l-1.03-2.76c6.32-4.19,14.14-5.68,19.58-11.3l1.34,2.2c-.95,15.29,5.11,32.46,18.31,40.94,13.17,8.47,11.87-7.56,8.95-15.88-4.18-11.93-10.22-25.14-18.66-34.47l-.14-1.83c2.36-4.65,7.14-7.76,10.53-11.69,12.75-14.82,22.97-32.8,32.05-50.05.54-.86,1.01-.94,1.51-.02.2.37,1.79,7.51,1.87,8.3Z"/>
      <path class="cls-28" d="M592.24,319.12c1.13,7.04.98,12.62,0,19.58-.66,4.69-1.69,9.3-3.77,13.56-7.02,14.42-12.07,8.1-15.6-3.6-3.92-12.98-3.39-28.37,2.67-40.59.57-1.16,5.27-9.22,5.81-9.32,1.91-.33,5.56,5.31,6.52,7.05,2.28,4.12,3.63,8.69,4.38,13.32Z"/>
      <path class="cls-17" d="M247.24,392.17c.06.05.29,1.59-.37,1.5-2.05-1.18-.51-2.35.37-1.5Z"/>
      <path class="cls-45" d="M189.24,362.8l-2.25-2.25c1.37-.25,2.5.83,2.25,2.25Z"/>
      <path class="cls-10" d="M455.9,81.14c1.84-.89,3.6-1.14,5.27-.75.17-.44.43-.41.75,0,.75,0,1.51.01,2.26,0l2.42-1.18c5.88.71,11.78,1.03,17.7.94,1.67.26,4.46,2.31,5.3,3.66,2.5-1.45,10.19-4.59,12.32-2.17l.67,2.52c.02.5,0,1.01,0,1.51l-1.19,11.74c-.86.66-1.53.63-1.82-.44-.55-1.36-.13-2.6-2.61-2.29-.53,1.25-3.4,5.1-4.91,3.8-.29-.24-1.47-7.73-3.76-6.02-.33.24-1.67,6.09-4.3,6.72-.76.18-.89-.67-.99-.69-1.07-2.41-.38-5.2-1.09-7.57-1.82-6.05-5.02-.06-7.39.98-5.56,2.43-4.62-2.63-8.08-3.64-2.32-.68-3.71.7-5.61.46-1.54-.19-2.66-1.99-3.93-2.12-2.4-.25-4.12,4.07-8.11,3.62-1.35-.15-2.54-1.47-3.72-1.36-2.15.19-2.07,2.66-5.77,2.11-1.58-.88-2.67-2.44-3.28-4.68l-4.26,5.83c-3.79,1.86-6.84-6.39-3.76-7.92-2.87-.74-5.42-1.62-4.52-5.27.81-2.55,3.12-2.21,6.93,1.04,4.53.27,8.99.79,13.4,1.56,4.2-1.25,8.6-1.93,12.06-.34Z"/>
      <path class="cls-10" d="M380.57,79.64c.24-.04.51.04.75,0,2.91.03,5.75.45,8.53,1.25l.51,1.76c2.23,1.77,1.59,3.93-.77,1.82l-2.24.44c-1.49,7-6.47,4.97-9.82.13l-6.44,8.1-1.83.05c-.73.08-1.57-.12-2.26,0-1.32.66-2.86-.21-4.6-2.6-1.07,1.76-2.29,2.38-3.68,1.84-2.63,2.35-4.17.94-4.61-4.22l-.97-2.16c-.73,2.22-1.88,3.6-3.46,4.11-2.23,9.64-5.52,5.77-7.37-1.51-.48,2.91-1.54,4.67-3.18,5.27-2.71.7-2.38-1.29-3.01-3.77-2.65-.73-3.36-9.2-2.07-9.77,4.36-.07,8.64-.53,12.84-1.39,5.51,1.83,11.42,2.19,17.75,1.09,5.54-1.1,10.85-1.26,15.93-.47Z"/>
      <path class="cls-19" d="M380.57,79.64c-7.96,1.45-21.87,2.85-29.74,2.31-2.28-.16-3.82-1.9-5.27-1.99-3.22-.19-8.22,3.37-11.69,1.18.83,2.99,1.49,6.04,2.25,9.04-1.55,1.88-1.65,4.61-2.67,6.78-.52,1.12.12,1.87-1.85,1.5.95-5.86.69-12.67,1.55-18.4,1.1-7.32,6.95-.07,10.8-.41,2.65-.24,4.46-3.35,6.82-4.56,6.82-3.5,6.62,3.26,10.52,3.06,2.95-.15,5.34-4.98,9.79-4.53,2.53.26,6.9,4.82,9.49,6.02Z"/>
      <path class="cls-43" d="M403.17,78.88c1.58-1.14,3.12-.89,4.61.74,1.77-1.41,3.24-1.66,4.43-.74.29.28,1.77-.12,2.26,1.51,2.41,1.52,5.08.81,8.01-2.14l1.03.64c2.42.87.27,5.45,3.6,3.53.1-.06.34-2.66,1.67-1.27.3.32-.75,2.28-.75,3.01-.77,1.35-1.66,1.66-3.01.75l-1.67.32c-2.12-1.55-5.67-.43-7.36,1.19-1.58.08-3.24-.61-4.52-1.51-3.56.02-4.79.63-3.66,1.83l-1.61,2.69c.42,3.33-1.89,3.03-3.77.75-.54-.64-.61-1.01-1.51-1.51-4.43,3.26-7.19,3.51-8.29.75-.31-1.11-1.01-1.5-1.51-2.26-1.41-.12-2.66-.87-3.77-2.26,1.39-.7,2.05-1.08,3.77-.76l-.75-1.5c.86-1.38,1.74-1.17,2.65.03,2.47-1.12,4.6-1.13,6.39-.03l.75-1.51c1.3-1.54,1.69-1.35,3.01-2.26Z"/>
      <path class="cls-19" d="M369.27,93.19c.14-.59,7-9.2,7.56-9.45,3.12-1.38,4.04,4.01,5,4.22,2.67.59,3.59-2.09,5.53-3.06,3.57-.6,2.8.8,3.77,2.26-5.02,1.5-7.72,11.42-12.6,12.68-3.39.88-2.71-6.02-5.11-7.4-.38-.18-1.96,5.2-3.01,5.25-1.11.06-1.37-3.5-1.13-4.5Z"/>
      <path class="cls-31" d="M460.42,79.64c-1.32.59-2.83,1.1-4.52,1.51-7.75.75-18.13,2.07-25.84-.15-2.59-.75-1.41-4.08-6.55-2.11-1.94.74-2.17,1.91-2.84,2.22-1.6.73-4.08.78-5.81,1.56-.81.03-.19-1.62-.39-2.27,3.76,2.29,6.35-4.32,10.23-4.53,2.5-.13,4.2,3.03,5.97,3.02,1.65,0,3.92-3.3,6.61-2.89,2.55.39,4.85,4.91,6.95,4.9,1.39,0,3.28-2.67,5.33-2.78,2.34-.13,3.29,2.25,3.7,2.26.63,0,4.85-6.2,7.16-.73Z"/>
      <path class="cls-19" d="M428.03,84.16c0,1.36.96,8.06,2.93,6.73.85-.57,3.32-6.4,5.73-6.71.72.04,2.29,5.6,2.63,6.76-.55-.08-1.18-1.17-2.27-.43-1.51,1.02-3.7,8.72-7.16,9.46-2.71-8.47-1.69-9.65-8.65-3.76-1.78-1.43-1.49-2.59.75-3.01-.3-1.03-.4-2.03.75-2.26-1.35-1.43-.04-6.53,2.26-6.02.42-.69,2.31-1.74,3.01-.75Z"/>
      <path class="cls-50" d="M502.6,84.16c-3.59-4.93-12.17,1.45-13.19,1.37-1.2-.09-2.2-3.82-3.85-4.2-.61-.14-1.73.47-2.7.35-6.13-.74-12.75-1.39-18.67-1.29,3.5-4.98,5.06-1.3,7.29-.9,1.1.2,2.37-1.31,3.7-1.39,1.64-.1,2.47,1.36,3.76,1.54,1.73.25,3.44-1.01,5.18-.79,1.83.24,3.3,3.24,5.18,2.89.87-.16,1.76-1.54,2.77-1.8,1.15-.3,7.15-.42,7.51-.65.67-.42,1.32-2.62,1.9-2.66,1.63-.09,1.08,6.15,1.13,7.52Z"/>
      <path class="cls-10" d="M415.98,86.42c.4-5.42.69-2.89,3.34-2.99.87-.03-.13-1.87,1.18-1.52l1.51,2.26v-3.01s3.02,3.77,3.02,3.77c-.75,1.23-.92,4.68-2.26,6.02-.8.46-1.05,1.22-.75,2.26-.29.99-.5,2.01-.75,3.01-1.04.88-1.26,2.9-3.76,2.26,0-2.31-1.28-4.57-1.51-6.78-2.43-.47-2.26-4.45,0-5.27Z"/>
      <path class="cls-19" d="M415.98,86.42c-.11,1.53-.16,3.78,0,5.27-3.94-2.59-8.94,11.67-11.26,4.86-1.04-3.04.24-3.37-2.29-6.37,1.55.73,2.57.39,3.77-.75.43-3.76,2.19-5.26,5.27-4.52,2.56-.99,2.97-.8,4.52,1.51Z"/>
      <path class="cls-37" d="M349.69,90.18c-.72,1.67-.49,7.91-2.65,9.03l-3.37-3.76c-.19,1.86-1.24,3.33-2.65,4.5-.71.02-1.89-5.35-1.88-6.01,0-.39,1.95-7.29,2.27-7.53,2.44-1.81,3.62,7.57,4.9,8.28,1.43.32,2.8-3.33,3.38-4.51Z"/>
      <path class="cls-31" d="M399.4,81.9c.52.22.51.47,0,.75-1.95.09-5.47,1.74-7.05,1.53-.14-.02-.45-.96-1.99-1.53-3.34-1.23-6.6-1.17-9.04-3.01,3.3-.58,5.64-1.85,7.95-2.21,6.21-.99,5.42,2.63,10.12,4.47Z"/>
      <path class="cls-36" d="M349.69,90.18c.66-1.37,1.02-2.97,1.9-4.54.38-.68.1-2.02,1.48-1.48,2.99,1.18,3.04,7.79,3.44,8.24.2.23,1.61,0,2.22.03-1.26,1.26-4.39,5.6-6.02,4.52-.41-.28-1.24-10.88-3.02-6.77Z"/>
      <path class="cls-37" d="M367.01,93.19c-3.11.52-1.76,5.07-6.02,4.52-1.26-2.67.5-5.09-2.27-5.27,1.04-1.05,2.98-3.82,4.15-3.82l4.13,4.57Z"/>
      <path class="cls-24" d="M400.91,88.67l-6.41,7.52c-1.79.33-.9-.81-1.13-1.85-.34-1.52-.39-3.69-.74-4.92,3.69,2.62,4.86-2.64,8.29-.75Z"/>
      <path class="cls-37" d="M412.21,78.88c-1.77.67-2.87,2.21-4.92,2.34-1.13.07-1.98-2.84-4.12-2.34,5.21-3.55,4.34-4.66,9.04,0Z"/>
      <path class="cls-50" d="M502.6,85.66c-.03,4.33-.32,8.52-.76,12.81-3.23.38-1.81-.41-2.26-1.51,2.23.44,1.38-1.08,1.61-2.49.5-2.98.32-6.18,1.4-8.8Z"/>
      <path class="cls-34" d="M400.16,81.14l-.02,1.04c.68.82,1.81.04,1.52,1.21-.89.47-2.14-.75-2.26-.75v-.75c.19-.3.53-.49.75-.75Z"/>
      <path class="cls-50" d="M460.42,79.64c.23-.03.52-.02.75,0,.34.23.33.48,0,.75-1.65.06-3.47.58-5.27.75,1.08-.94,3.13-1.34,4.52-1.51Z"/>
      <path class="cls-31" d="M461.93,80.39c-.25,0-.5,0-.75,0v-.75c.35.03.66.4.75.75Z"/>
      <path class="cls-53" d="M625.26,311.47c-.1.15-3.1,1.43-3.28,1.42-.3-.02-4.12-3.65-4.12-3.93,0-.47,2.79-2.2,2.95-3.12.26-1.48-6.31-5.25.43-9.3,3.38,2.09,5.7,12.28,4.02,14.92Z"/>
      <path class="cls-23" d="M567.38,81.9c.79,2.82-.57,8.79,0,12.05-2.26.56-1.93-3.85-2.26-5.27l-.84-.09c-1.91,4.88-4.2,5.46-6.22.23-.21.71-.88.92-1.99.62-1.46,3.15-3.38,1.55-4.02-1.2l-2.76.45c-1.34,3.37-3.61.53-4.56-2.02-2.38,2.76-4.83,5.21-7.51,1.91-2.02-.94-3.16-.28-3.43,1.96l-1.82.41c-3.2.4-1.36-10.08-.2-11.23,1.45-1.43,24.33.03,27.69.84,2.21-.64,6.67-1.01,7.91,1.35Z"/>
      <path class="cls-19" d="M531.98,90.93c-.6,1.32-.17,2.3-3.01,2.26-.83-5.1,1.8-10.53-.76-15.05,2.76-1.51,8.36.25,10.02-.13,1.24-.28,2.54-2.94,4.69-2.88,1.58.05,2.62,2.24,2.99,2.23.66,0,5.77-9.37,6.41.77l4.06-3.74c2.04,1.09,1.99,3.52,3.08,5.24,1.36-2.29,5.76-9.79,6.45-3.42.44,4.1.9,3.66,1.47,5.69l-34.15-1.54c-1.21.28-2.37,8.83-1.25,10.57Z"/>
      <path class="cls-19" d="M531.98,90.93c1-2.19,1.96-5.12,2.27-7.53,1.95.19,1.25,3.49,1.5,3.78.22.25,1.67-.83,2.31-.42.48.31.46,1.84,1.13,1.97,2.53.48,4.32-4.2,5.96-3.82s1.05,4.92,4.16,3.77c.28,1.34.03,2.85-.75,4.52-.12.5-.72,4.41-2.25,3.01-.86-.79-.21-8.77-2.26-6.77-.34.33-3.3,9.64-5.28,7.52l-.76-7.52c-1.72.8-1.26,4.42-3.39,5.26-1.67.66-.96-1.93-1.49-3.01-.24-.5-1.03-.59-1.13-.75Z"/>
      <path class="cls-37" d="M556.08,89.43c3.42-7.44,2.97.62,4.92,1.48,2.5,1.1,2.57-2.78,2.62-4.5,2.38-.43,1.2.95,1.5,2.26-2.82,1.76-1.83,7.72-5.64,8.31-2.48.38-1.91-7.55-3.4-7.56Z"/>
      <path class="cls-21" d="M556.08,89.43c-.52,1.14-1.98,6.56-2.27,6.78-2.33,1.72-2.71-6.39-3.01-7.52l-2.25,4.51c.32-1.33.08-3.02.75-4.52.54-1.2,1.73-2.08,2.64-3,1.36.83,1.57,3.43,2.62,4.16.54.37,1.27-.41,1.52-.41Z"/>
      <path class="cls-22" d="M621.59,117.32c.12.12-.07,2.14.72,3.42,1.04,1.67,4.4,2.15,4.62,4.5.24,2.65-3.07,3.33-3.06,5.22.01,2.15,4.25,4.51,3.7,6.64-.37,1.42-3.46,2.98-4.07,4.32-1.91,4.12,4.28,6.31,4,9.28s-5.82,5.05-5.88,6.86c-.09,2.49,3.54,4.04,3.8,6.1.2,1.57-.82,3.03-.78,4.48.09,3.29,2.57,5.99-1.23,8.55-2.32,1.57-5.26,2.18-7.46.12s.1-2.79.4-4.97-.75-4.04-.43-5.65c.34-1.72,2.43-1.44,2.74-3.33.34-2.07-1.07-4.1-.8-5.96.21-1.49,1.73-2.11,1.52-4.49-.15-1.63-2.13-3.83-2.07-4.61.09-1.07,3.01-1.64,2.88-5.24-.11-2.94-2.61-4.23-2.96-6.22-.37-2.12,1.07-4.23.47-7.18-.48-2.37-3.84-5.81-3.66-7.69s6.22-5.48,7.57-4.13Z"/>
      <path class="cls-27" d="M628.4,223.48c-.25.49-.5.48-.75,0l.38-.74.38.74Z"/>
      <path class="cls-48" d="M624.63,225.74c.19-.28.44-.62.75-.75-.12.35-.4.67-.75.75Z"/>
      <path class="cls-48" d="M626.14,224.98l.75-.75c-.23.08-.47.62-.75.75Z"/>
      <path class="cls-48" d="M628.4,224.23h-.75v-.75c.25.06.66-.1.75,0s-.06.5,0,.75Z"/>
      <path class="cls-32" d="M114.36,214.88c3.03-3.21,9.4-9.79,14.14-8.75.44.1.75,2.99,1.99,1.54.27-.32-.53-2.04.41-2.31,2.67-.77,9.15.77,12.06,1.52,1.63.42,3.17,1.84,4.65,2.13,2.62.53,5.01-.49,7.41.88,7.77,4.45,16.37,23.53,17.47,32.24,5.7,45.18-64.95,41.32-69.03,6.5-1.31-11.16,3.33-25.73,10.91-33.74Z"/>
      <path class="cls-33" d="M537.25,215.19c-.32-1.93.47-2.2,1.69-3.21,5.14-4.28,16.35-10.7,22.49-14.41,1.89-1.15,4.65-1.51,6.95-2.84,4.2-2.41,8-7.76,13.29-8.13,1.13.78.91,15.14.77,17.67-.93,17.34-4.03,38.43-7.89,55.37-1.07,4.68-3.4,16.01-5.1,19.75-2.4,5.27-19.99,18.48-25.47,21.98-23.46,14.98-54.63,28.73-80.56,39.2-49.3,19.91-85.63,29.24-139.74,26.03-7.12-.42-13.97-.46-16.92-7.93,31.04-13.99,58.57-34.13,86.63-53.11,66.62,54.02,163.26-6.77,143.87-90.37Z"/>
      <path class="cls-32" d="M449.74,198.05c6.14-.3,23.3,7.59,27.55,11.94,13.12,13.44,11.82,38.83.43,53.01-24.43,30.39-74.63,13.03-66.69-27.51,3.39-17.31,20.18-36.53,38.7-37.43Z"/>
      <path class="cls-32" d="M31.8,122.56l-2.25-2.25c1.37-.25,2.5.83,2.25,2.25Z"/>
      <path class="cls-22" d="M287.92,183.56c6.96-1.73,15.05-3.07,21.79-4.2,15.76-2.64,31.64-4.19,47.52-5.98l.44,1.95c-6.01,8.86-13.23,18.82-17.15,28.8-1.89,4.81-2.36,10.5-3.99,14.84-1.18,3.12-16.72,13.38-20.5,15.66-6.08,3.67-12.83,6.29-18.82,9.81s-10.52,8.34-16.82,10.66c2.43-3.14,4.4-3.81,5.07-8.1,2.47-15.76-.37-37.44-9.59-50.63-.51-1.17.66-5.2,1.2-6.29.23-.46,6.39-2.66,7.91-2.53.02-2.45.21-3.37,2.94-3.98Z"/>
      <path class="cls-49" d="M287.92,183.56c-2.53.64-.5,4.15-1.63,5.15-.57.5-4.8.55-6.06.94-.49.15-.6.94-1.25,1.36-1.26.82-2.27-1.14-.84,3.09l-2.26,2.26c-.44-.62-2.3-.93-2.3-2.63,0-2.27,2.78-1.63,3.05-1.89.34-.33-1.55-3.45-.4-4.53,1.26-1.95,3.81,1.44,4.84.72.2-.14.67-2.23,2.39-3.28,1.57-.96,2.93-.8,4.46-1.18Z"/>
      <path class="cls-28" d="M547.05,323.64c6.96,2.94,23.28,38.33,22.61,46.31-1.21,14.52-10.74,10.38-18.39,3.31-10.91-10.08-15.47-25.84-14.01-40.59.58-5.92,2.61-12.07,9.79-9.04Z"/>
      <path class="cls-28" d="M517.67,343.97c10.45,8.06,19.1,19.83,24.86,31.62-15.74,5.2-38.88-11.04-43.69-25.6-5.67-17.16,9.78-13.01,18.83-6.02Z"/>
      <path class="cls-51" d="M440.83,84.91c.11.11.89,2.92.76,3.01-.69.49-2.54-.18-3-1.12.5-.69,1.07-3.07,2.24-1.89Z"/>
      <path class="cls-15" d="M470.21,83.41v1.5c-1.11.24-1.57-.33-2.25-1.13l2.25-.37Z"/>
      <path class="cls-50" d="M485.28,84.15c-1.57.22-1.71.07-1.5-1.5l1.5,1.5Z"/>
      <path class="cls-44" d="M411.46,84.91c-3.06,1.18-3.69,3.01-5.27,4.52,2.01-5.7-2.03-.8-2.25-4.5,2.83-1.68,4.56-1.41,7.53-.01Z"/>
      <path class="cls-7" d="M422.76,90.93c-.1.79-.54,1.55-.75,2.26-2.11-3.08.51-2.02.75-2.26Z"/>
    </g>
  </g>
</svg>